<svg width="615" height="485" viewBox="0 0 615 485" fill="none" xmlns="http://www.w3.org/2000/svg">
<path d="M22.2984 387.447C25.1984 387.447 27.4024 387.795 28.9104 388.491C30.4184 389.129 31.7524 389.854 32.9124 390.666C33.6084 391.072 34.1594 391.391 34.5654 391.623C35.0294 391.797 35.4644 391.884 35.8704 391.884C36.4504 391.884 36.8564 391.565 37.0884 390.927C37.3784 390.289 37.6104 389.332 37.7844 388.056H39.7854C39.7274 389.042 39.6404 390.231 39.5244 391.623C39.4664 392.957 39.4084 394.755 39.3504 397.017C39.3504 399.221 39.3504 402.15 39.3504 405.804H37.3494C37.1754 403.02 36.5664 400.352 35.5224 397.8C34.4784 395.248 32.9414 393.16 30.9114 391.536C28.9394 389.912 26.3294 389.1 23.0814 389.1C20.0074 389.1 17.4554 390.028 15.4254 391.884C13.4534 393.74 12.4674 396.176 12.4674 399.192C12.4674 401.802 13.1344 404.006 14.4684 405.804C15.8024 407.544 17.5714 409.139 19.7754 410.589C22.0374 411.981 24.4734 413.489 27.0834 415.113C30.0994 416.969 32.7674 418.825 35.0874 420.681C37.4654 422.479 39.3214 424.48 40.6554 426.684C42.0474 428.888 42.7434 431.556 42.7434 434.688C42.7434 438.4 41.9024 441.474 40.2204 443.91C38.5384 446.346 36.3054 448.173 33.5214 449.391C30.7374 450.609 27.6634 451.218 24.2994 451.218C21.2254 451.218 18.7894 450.87 16.9914 450.174C15.1934 449.478 13.6564 448.753 12.3804 447.999C11.1044 447.187 10.1184 446.781 9.42237 446.781C8.84237 446.781 8.40737 447.1 8.11737 447.738C7.88537 448.376 7.68237 449.333 7.50837 450.609H5.50737C5.62337 449.391 5.68137 447.97 5.68137 446.346C5.73937 444.664 5.76837 442.489 5.76837 439.821C5.82637 437.153 5.85537 433.789 5.85537 429.729H7.85637C8.08837 433.209 8.72637 436.457 9.77037 439.473C10.8724 442.489 12.5254 444.925 14.7294 446.781C16.9914 448.579 19.9784 449.478 23.6904 449.478C25.6044 449.478 27.4024 449.101 29.0844 448.347C30.8244 447.535 32.2454 446.288 33.3474 444.606C34.4494 442.866 35.0004 440.633 35.0004 437.907C35.0004 435.529 34.4204 433.47 33.2604 431.73C32.1584 429.932 30.5924 428.279 28.5624 426.771C26.5324 425.205 24.1544 423.61 21.4284 421.986C18.7024 420.304 16.1504 418.593 13.7724 416.853C11.3944 415.113 9.48037 413.112 8.03037 410.85C6.63837 408.53 5.94237 405.746 5.94237 402.498C5.94237 399.076 6.69637 396.263 8.20437 394.059C9.77037 391.797 11.8004 390.144 14.2944 389.1C16.7884 387.998 19.4564 387.447 22.2984 387.447ZM78.2428 403.977C80.2728 403.977 82.0418 404.267 83.5498 404.847C85.0578 405.427 86.3048 406.239 87.2908 407.283C88.3928 408.443 89.1468 409.951 89.5528 411.807C89.9588 413.663 90.1618 415.954 90.1618 418.68V441.909C90.1618 444.345 90.6548 445.998 91.6408 446.868C92.6848 447.738 94.3958 448.173 96.7738 448.173V450C95.7878 449.942 94.2798 449.884 92.2498 449.826C90.2198 449.71 88.2478 449.652 86.3338 449.652C84.4198 449.652 82.5348 449.71 80.6788 449.826C78.8808 449.884 77.5178 449.942 76.5898 450V448.173C78.6778 448.173 80.1568 447.738 81.0268 446.868C81.8968 445.998 82.3318 444.345 82.3318 441.909V416.766C82.3318 414.968 82.2158 413.315 81.9838 411.807C81.7518 410.299 81.1718 409.081 80.2438 408.153C79.3158 407.225 77.8078 406.761 75.7198 406.761C73.4578 406.761 71.4278 407.457 69.6298 408.849C67.8898 410.241 66.4978 412.155 65.4538 414.591C64.4678 416.969 63.9748 419.637 63.9748 422.595V441.909C63.9748 444.345 64.4098 445.998 65.2798 446.868C66.1498 447.738 67.6288 448.173 69.7168 448.173V450C68.7888 449.942 67.3968 449.884 65.5408 449.826C63.7428 449.71 61.8868 449.652 59.9728 449.652C58.0588 449.652 56.0868 449.71 54.0568 449.826C52.0268 449.884 50.5188 449.942 49.5328 450V448.173C51.9108 448.173 53.5928 447.738 54.5788 446.868C55.6228 445.998 56.1448 444.345 56.1448 441.909V414.678C56.1448 412.068 55.6808 410.154 54.7528 408.936C53.8248 407.66 52.0848 407.022 49.5328 407.022V405.195C51.3888 405.369 53.1868 405.456 54.9268 405.456C56.6088 405.456 58.2038 405.369 59.7118 405.195C61.2778 404.963 62.6988 404.644 63.9748 404.238V414.504C65.4828 410.734 67.5418 408.037 70.1518 406.413C72.7618 404.789 75.4588 403.977 78.2428 403.977ZM104.43 403.977C106.46 403.977 108.229 404.267 109.737 404.847C111.245 405.427 112.492 406.239 113.478 407.283C114.58 408.443 115.334 409.951 115.74 411.807C116.146 413.663 116.349 415.954 116.349 418.68V441.909C116.349 444.345 116.842 445.998 117.828 446.868C118.872 447.738 120.583 448.173 122.961 448.173V450C121.975 449.942 120.467 449.884 118.437 449.826C116.407 449.71 114.435 449.652 112.521 449.652C110.607 449.652 108.722 449.71 106.866 449.826C105.068 449.884 103.705 449.942 102.777 450V448.173C104.865 448.173 106.344 447.738 107.214 446.868C108.084 445.998 108.519 444.345 108.519 441.909V416.766C108.519 414.968 108.403 413.315 108.171 411.807C107.939 410.299 107.359 409.081 106.431 408.153C105.503 407.225 103.995 406.761 101.907 406.761C99.6448 406.761 97.6148 407.457 95.8168 408.849C94.0768 410.241 92.6848 412.126 91.6408 414.504C90.6548 416.882 90.1618 419.55 90.1618 422.508L89.9008 414.417C91.4668 410.415 93.5838 407.689 96.2518 406.239C98.9198 404.731 101.646 403.977 104.43 403.977ZM140.595 381.792V441.909C140.595 444.345 141.088 445.998 142.074 446.868C143.118 447.738 144.829 448.173 147.207 448.173V450C146.221 449.942 144.713 449.884 142.683 449.826C140.711 449.71 138.71 449.652 136.68 449.652C134.708 449.652 132.707 449.71 130.677 449.826C128.647 449.884 127.139 449.942 126.153 450V448.173C128.531 448.173 130.213 447.738 131.199 446.868C132.243 445.998 132.765 444.345 132.765 441.909V392.232C132.765 389.622 132.301 387.708 131.373 386.49C130.445 385.214 128.705 384.576 126.153 384.576V382.749C128.009 382.923 129.807 383.01 131.547 383.01C133.229 383.01 134.824 382.923 136.332 382.749C137.898 382.517 139.319 382.198 140.595 381.792ZM172.121 403.977C175.833 403.977 179.168 404.789 182.126 406.413C185.084 408.037 187.433 410.589 189.173 414.069C190.971 417.549 191.87 422.073 191.87 427.641C191.87 433.209 190.971 437.733 189.173 441.213C187.433 444.635 185.084 447.158 182.126 448.782C179.168 450.406 175.833 451.218 172.121 451.218C168.467 451.218 165.132 450.406 162.116 448.782C159.158 447.158 156.78 444.635 154.982 441.213C153.242 437.733 152.372 433.209 152.372 427.641C152.372 422.073 153.242 417.549 154.982 414.069C156.78 410.589 159.158 408.037 162.116 406.413C165.132 404.789 168.467 403.977 172.121 403.977ZM172.121 405.717C168.815 405.717 166.089 407.428 163.943 410.85C161.855 414.272 160.811 419.869 160.811 427.641C160.811 435.413 161.855 441.01 163.943 444.432C166.089 447.796 168.815 449.478 172.121 449.478C175.427 449.478 178.124 447.796 180.212 444.432C182.358 441.01 183.431 435.413 183.431 427.641C183.431 419.869 182.358 414.272 180.212 410.85C178.124 407.428 175.427 405.717 172.121 405.717ZM237.967 404.238V440.604C237.967 443.214 238.431 445.157 239.359 446.433C240.345 447.651 242.085 448.26 244.579 448.26V450.087C242.781 449.913 240.983 449.826 239.185 449.826C237.503 449.826 235.879 449.913 234.313 450.087C232.805 450.261 231.413 450.58 230.137 451.044V440.778C228.687 444.548 226.628 447.245 223.96 448.869C221.35 450.435 218.653 451.218 215.869 451.218C213.839 451.218 212.07 450.928 210.562 450.348C209.054 449.768 207.807 448.956 206.821 447.912C205.719 446.752 204.965 445.244 204.559 443.388C204.153 441.532 203.95 439.241 203.95 436.515V414.678C203.95 412.068 203.486 410.154 202.558 408.936C201.63 407.66 199.89 407.022 197.338 407.022V405.195C199.194 405.369 200.992 405.456 202.732 405.456C204.414 405.456 206.009 405.369 207.517 405.195C209.083 404.963 210.504 404.644 211.78 404.238V438.429C211.78 440.227 211.896 441.88 212.128 443.388C212.36 444.896 212.94 446.114 213.868 447.042C214.796 447.97 216.304 448.434 218.392 448.434C220.654 448.434 222.655 447.738 224.395 446.346C226.193 444.954 227.585 443.069 228.571 440.691C229.615 438.313 230.137 435.645 230.137 432.687V414.678C230.137 412.068 229.673 410.154 228.745 408.936C227.817 407.66 226.077 407.022 223.525 407.022V405.195C225.381 405.369 227.179 405.456 228.919 405.456C230.601 405.456 232.196 405.369 233.704 405.195C235.27 404.963 236.691 404.644 237.967 404.238ZM288.78 405.195V406.935C287.678 407.051 286.663 407.544 285.735 408.414C284.807 409.284 283.937 410.821 283.125 413.025L268.857 450.435C268.625 450.435 268.393 450.435 268.161 450.435C267.929 450.435 267.668 450.435 267.378 450.435L251.37 411.894C250.442 409.632 249.514 408.269 248.586 407.805C247.716 407.283 246.962 407.022 246.324 407.022V405.195C247.484 405.253 248.673 405.34 249.891 405.456C251.167 405.514 252.53 405.543 253.98 405.543C255.778 405.543 257.663 405.514 259.635 405.456C261.665 405.398 263.55 405.311 265.29 405.195V407.022C263.84 407.022 262.535 407.138 261.375 407.37C260.273 407.544 259.548 408.095 259.2 409.023C258.91 409.951 259.2 411.546 260.07 413.808L270.945 440.691L270.423 441.126L280.341 415.113C281.095 413.199 281.385 411.691 281.211 410.589C281.095 409.429 280.515 408.559 279.471 407.979C278.485 407.399 276.948 407.051 274.86 406.935V405.195C275.904 405.253 276.803 405.311 277.557 405.369C278.311 405.369 279.036 405.398 279.732 405.456C280.486 405.456 281.298 405.456 282.168 405.456C283.502 405.456 284.691 405.427 285.735 405.369C286.837 405.311 287.852 405.253 288.78 405.195ZM332.041 405.195V406.935C330.939 407.051 329.924 407.544 328.996 408.414C328.068 409.284 327.198 410.821 326.386 413.025L312.118 450.435H310.639L294.631 411.894C293.529 409.632 292.427 408.269 291.325 407.805C290.281 407.283 289.411 407.022 288.715 407.022V405.195C289.991 405.369 291.325 405.514 292.717 405.63C294.109 405.688 295.617 405.717 297.241 405.717C299.039 405.717 300.924 405.659 302.896 405.543C304.926 405.427 306.811 405.311 308.551 405.195V407.022C307.101 407.022 305.796 407.138 304.636 407.37C303.534 407.544 302.838 408.153 302.548 409.197C302.258 410.183 302.606 411.894 303.592 414.33L314.293 440.865L313.771 441.039L323.689 415.113C324.443 413.199 324.733 411.691 324.559 410.589C324.443 409.429 323.863 408.559 322.819 407.979C321.775 407.399 320.209 407.051 318.121 406.935V405.195C319.165 405.253 320.064 405.311 320.818 405.369C321.572 405.369 322.297 405.398 322.993 405.456C323.747 405.456 324.559 405.456 325.429 405.456C326.763 405.456 327.952 405.427 328.996 405.369C330.098 405.311 331.113 405.253 332.041 405.195ZM312.118 450.435L309.16 458.004C308.58 459.454 307.971 460.672 307.333 461.658C306.753 462.644 306.115 463.456 305.419 464.094C304.491 464.964 303.389 465.544 302.113 465.834C300.837 466.182 299.677 466.356 298.633 466.356C297.531 466.356 296.516 466.153 295.588 465.747C294.718 465.341 294.022 464.732 293.5 463.92C292.978 463.166 292.717 462.238 292.717 461.136C292.717 459.744 293.123 458.613 293.935 457.743C294.747 456.931 295.878 456.525 297.328 456.525C298.546 456.525 299.59 456.873 300.46 457.569C301.33 458.265 301.765 459.28 301.765 460.614C301.765 461.6 301.533 462.412 301.069 463.05C300.605 463.688 300.054 464.181 299.416 464.529C299.532 464.587 299.619 464.616 299.677 464.616C299.793 464.616 299.88 464.616 299.938 464.616C301.504 464.616 302.896 464.065 304.114 462.963C305.332 461.919 306.405 460.208 307.333 457.83L310.465 449.739L312.118 450.435ZM384.551 387.186C390.061 387.186 394.875 388.433 398.993 390.927C403.169 393.421 406.388 397.017 408.65 401.715C410.97 406.355 412.13 412.01 412.13 418.68C412.13 425.176 410.941 430.86 408.563 435.732C406.243 440.604 402.995 444.403 398.819 447.129C394.643 449.855 389.858 451.218 384.464 451.218C378.954 451.218 374.111 449.971 369.935 447.477C365.817 444.983 362.598 441.387 360.278 436.689C358.016 431.991 356.885 426.336 356.885 419.724C356.885 413.228 358.074 407.544 360.452 402.672C362.83 397.8 366.078 394.001 370.196 391.275C374.372 388.549 379.157 387.186 384.551 387.186ZM384.203 388.752C380.433 388.752 377.156 390.057 374.372 392.667C371.588 395.277 369.413 398.873 367.847 403.455C366.339 408.037 365.585 413.344 365.585 419.376C365.585 425.524 366.426 430.889 368.108 435.471C369.848 439.995 372.168 443.504 375.068 445.998C378.026 448.434 381.274 449.652 384.812 449.652C388.582 449.652 391.859 448.347 394.643 445.737C397.427 443.127 399.573 439.531 401.081 434.949C402.647 430.309 403.43 425.002 403.43 419.028C403.43 412.822 402.56 407.457 400.82 402.933C399.138 398.409 396.847 394.929 393.947 392.493C391.047 389.999 387.799 388.752 384.203 388.752ZM448.515 403.977C450.719 403.977 452.546 404.267 453.996 404.847C455.504 405.427 456.751 406.239 457.737 407.283C458.839 408.443 459.622 409.893 460.086 411.633C460.55 413.373 460.782 415.722 460.782 418.68V441.909C460.782 444.345 461.275 445.998 462.261 446.868C463.305 447.738 465.016 448.173 467.394 448.173V450C466.408 449.942 464.9 449.884 462.87 449.826C460.84 449.71 458.868 449.652 456.954 449.652C455.04 449.652 453.155 449.71 451.299 449.826C449.501 449.884 448.138 449.942 447.21 450V448.173C449.298 448.173 450.777 447.738 451.647 446.868C452.517 445.998 452.952 444.345 452.952 441.909V416.766C452.952 414.968 452.807 413.315 452.517 411.807C452.227 410.299 451.56 409.081 450.516 408.153C449.53 407.225 447.993 406.761 445.905 406.761C443.469 406.761 441.323 407.457 439.467 408.849C437.669 410.241 436.248 412.155 435.204 414.591C434.218 416.969 433.725 419.637 433.725 422.595V441.909C433.725 444.345 434.16 445.998 435.03 446.868C435.9 447.738 437.379 448.173 439.467 448.173V450C438.539 449.942 437.147 449.884 435.291 449.826C433.493 449.71 431.637 449.652 429.723 449.652C427.809 449.652 425.837 449.71 423.807 449.826C421.777 449.884 420.269 449.942 419.283 450V448.173C421.661 448.173 423.343 447.738 424.329 446.868C425.373 445.998 425.895 444.345 425.895 441.909V414.678C425.895 412.068 425.431 410.154 424.503 408.936C423.575 407.66 421.835 407.022 419.283 407.022V405.195C421.139 405.369 422.937 405.456 424.677 405.456C426.359 405.456 427.954 405.369 429.462 405.195C431.028 404.963 432.449 404.644 433.725 404.238V414.504C435.233 410.56 437.321 407.834 439.989 406.326C442.715 404.76 445.557 403.977 448.515 403.977ZM485.027 381.792V441.909C485.027 444.345 485.52 445.998 486.506 446.868C487.55 447.738 489.261 448.173 491.639 448.173V450C490.653 449.942 489.145 449.884 487.115 449.826C485.143 449.71 483.142 449.652 481.112 449.652C479.14 449.652 477.139 449.71 475.109 449.826C473.079 449.884 471.571 449.942 470.585 450V448.173C472.963 448.173 474.645 447.738 475.631 446.868C476.675 445.998 477.197 444.345 477.197 441.909V392.232C477.197 389.622 476.733 387.708 475.805 386.49C474.877 385.214 473.137 384.576 470.585 384.576V382.749C472.441 382.923 474.239 383.01 475.979 383.01C477.661 383.01 479.256 382.923 480.764 382.749C482.33 382.517 483.751 382.198 485.027 381.792ZM506.005 383.445C507.513 383.445 508.818 383.996 509.92 385.098C511.022 386.2 511.573 387.505 511.573 389.013C511.573 390.521 511.022 391.826 509.92 392.928C508.818 394.03 507.513 394.581 506.005 394.581C504.497 394.581 503.192 394.03 502.09 392.928C500.988 391.826 500.437 390.521 500.437 389.013C500.437 387.505 500.988 386.2 502.09 385.098C503.192 383.996 504.497 383.445 506.005 383.445ZM510.529 404.238V441.909C510.529 444.345 511.022 445.998 512.008 446.868C513.052 447.738 514.763 448.173 517.141 448.173V450C516.155 449.942 514.647 449.884 512.617 449.826C510.645 449.71 508.644 449.652 506.614 449.652C504.642 449.652 502.641 449.71 500.611 449.826C498.581 449.884 497.073 449.942 496.087 450V448.173C498.465 448.173 500.147 447.738 501.133 446.868C502.177 445.998 502.699 444.345 502.699 441.909V414.678C502.699 412.068 502.235 410.154 501.307 408.936C500.379 407.66 498.639 407.022 496.087 407.022V405.195C497.943 405.369 499.741 405.456 501.481 405.456C503.163 405.456 504.758 405.369 506.266 405.195C507.832 404.963 509.253 404.644 510.529 404.238ZM550.808 403.977C553.012 403.977 554.839 404.267 556.289 404.847C557.797 405.427 559.044 406.239 560.03 407.283C561.132 408.443 561.915 409.893 562.379 411.633C562.843 413.373 563.075 415.722 563.075 418.68V441.909C563.075 444.345 563.568 445.998 564.554 446.868C565.598 447.738 567.309 448.173 569.687 448.173V450C568.701 449.942 567.193 449.884 565.163 449.826C563.133 449.71 561.161 449.652 559.247 449.652C557.333 449.652 555.448 449.71 553.592 449.826C551.794 449.884 550.431 449.942 549.503 450V448.173C551.591 448.173 553.07 447.738 553.94 446.868C554.81 445.998 555.245 444.345 555.245 441.909V416.766C555.245 414.968 555.1 413.315 554.81 411.807C554.52 410.299 553.853 409.081 552.809 408.153C551.823 407.225 550.286 406.761 548.198 406.761C545.762 406.761 543.616 407.457 541.76 408.849C539.962 410.241 538.541 412.155 537.497 414.591C536.511 416.969 536.018 419.637 536.018 422.595V441.909C536.018 444.345 536.453 445.998 537.323 446.868C538.193 447.738 539.672 448.173 541.76 448.173V450C540.832 449.942 539.44 449.884 537.584 449.826C535.786 449.71 533.93 449.652 532.016 449.652C530.102 449.652 528.13 449.71 526.1 449.826C524.07 449.884 522.562 449.942 521.576 450V448.173C523.954 448.173 525.636 447.738 526.622 446.868C527.666 445.998 528.188 444.345 528.188 441.909V414.678C528.188 412.068 527.724 410.154 526.796 408.936C525.868 407.66 524.128 407.022 521.576 407.022V405.195C523.432 405.369 525.23 405.456 526.97 405.456C528.652 405.456 530.247 405.369 531.755 405.195C533.321 404.963 534.742 404.644 536.018 404.238V414.504C537.526 410.56 539.614 407.834 542.282 406.326C545.008 404.76 547.85 403.977 550.808 403.977ZM594.628 403.977C599.732 403.977 603.705 405.543 606.547 408.675C609.447 411.749 610.897 416.563 610.897 423.117H580.186L580.099 421.464H602.545C602.661 418.622 602.429 416.012 601.849 413.634C601.269 411.198 600.341 409.255 599.065 407.805C597.847 406.355 596.252 405.63 594.28 405.63C591.612 405.63 589.234 406.964 587.146 409.632C585.116 412.3 583.898 416.534 583.492 422.334L583.753 422.682C583.637 423.552 583.55 424.509 583.492 425.553C583.434 426.597 583.405 427.641 583.405 428.685C583.405 432.629 584.043 436.022 585.319 438.864C586.595 441.706 588.248 443.881 590.278 445.389C592.366 446.839 594.512 447.564 596.716 447.564C598.456 447.564 600.109 447.303 601.675 446.781C603.241 446.201 604.691 445.273 606.025 443.997C607.359 442.721 608.519 441.01 609.505 438.864L611.245 439.56C610.607 441.474 609.563 443.33 608.113 445.128C606.663 446.926 604.836 448.405 602.632 449.565C600.428 450.667 597.876 451.218 594.976 451.218C590.8 451.218 587.204 450.261 584.188 448.347C581.23 446.433 578.939 443.794 577.315 440.43C575.749 437.008 574.966 433.093 574.966 428.685C574.966 423.581 575.778 419.202 577.402 415.548C579.026 411.836 581.317 408.994 584.275 407.022C587.233 404.992 590.684 403.977 594.628 403.977Z" fill="#1565C0"/>
<path fill-rule="evenodd" clip-rule="evenodd" d="M164.664 6.84002C156.76 3.19201 145.208 1.36801 130.008 1.36801C115.112 1.36801 101.128 4.25601 88.056 10.032C74.984 15.504 64.344 24.168 56.136 36.024C48.232 47.576 44.28 62.32 44.28 80.256C44.28 97.28 47.928 111.872 55.224 124.032C62.824 135.888 72.856 146.376 85.32 155.496C86.34 156.242 87.3661 156.988 88.3984 157.732H172.713C167.114 153.947 161.239 150.161 155.088 146.376C141.408 137.864 128.64 129.96 116.784 122.664C105.232 115.064 95.96 106.704 88.968 97.584C81.976 88.16 78.48 76.608 78.48 62.928C78.48 47.12 83.648 34.352 93.984 24.624C104.624 14.896 118 10.032 134.112 10.032C151.136 10.032 164.816 14.288 175.152 22.8C185.792 31.312 193.848 42.256 199.32 55.632C204.792 69.008 207.984 82.992 208.896 97.584H219.384V51.528C219.688 39.672 219.992 30.248 220.296 23.256C220.904 15.96 221.36 9.72801 221.664 4.56002H211.176C210.264 11.248 209.048 16.264 207.528 19.608C206.312 22.952 204.184 24.624 201.144 24.624C199.016 24.624 196.736 24.168 194.304 23.256C192.176 22.04 189.288 20.368 185.64 18.24C179.56 13.984 172.568 10.184 164.664 6.84002ZM190.855 170.732H107.204C113.111 174.651 119.192 178.54 125.448 182.4C139.736 190.912 152.2 199.272 162.84 207.48C173.48 215.384 181.688 224.048 187.464 233.472C193.544 242.592 196.584 253.384 196.584 265.848C196.584 280.136 193.696 291.84 187.92 300.96C182.144 309.776 174.696 316.312 165.576 320.568C156.76 324.52 147.336 326.496 137.304 326.496C117.848 326.496 102.192 321.784 90.336 312.36C78.784 302.632 70.12 289.864 64.344 274.056C58.872 258.248 55.528 241.224 54.312 222.984H43.824C43.824 244.264 43.672 261.896 43.368 275.88C43.368 289.864 43.216 301.264 42.912 310.08C42.912 318.592 42.608 326.04 42 332.424H52.488C53.4 325.736 54.464 320.72 55.68 317.376C57.2 314.032 59.48 312.36 62.52 312.36C66.168 312.36 71.336 314.488 78.024 318.744C84.712 322.696 92.768 326.496 102.192 330.144C111.616 333.792 124.384 335.616 140.496 335.616C158.128 335.616 174.24 332.424 188.832 326.04C203.424 319.656 215.128 310.08 223.944 297.312C232.76 284.544 237.168 268.432 237.168 248.976C237.168 232.56 233.52 218.576 226.224 207.024C219.232 195.472 209.504 184.984 197.04 175.56C195.028 173.951 192.967 172.341 190.855 170.732ZM283.698 170.732H329.304C329.484 202.116 333.89 229.565 342.522 253.08C351.642 276.792 363.802 295.184 379.002 308.256C394.506 321.024 411.53 327.408 430.074 327.408C449.834 327.408 467.01 320.568 481.602 306.888C496.194 293.208 507.442 274.36 515.346 250.344C523.217 227.022 527.314 200.484 527.637 170.732H573.2C572.543 202.432 566.33 230.337 554.562 254.448C542.402 279.984 525.378 299.896 503.49 314.184C481.602 328.472 456.522 335.616 428.25 335.616C399.37 335.616 373.986 329.08 352.098 316.008C330.514 302.936 313.642 284.088 301.482 259.464C289.647 234.885 283.719 205.307 283.698 170.732ZM573.167 157.732C572.367 125.945 566.318 98.7515 555.018 76.152C543.162 51.528 526.29 32.68 504.402 19.608C482.818 6.53601 457.586 0 428.706 0C400.434 0 375.354 7.14401 353.466 21.432C331.882 35.72 314.858 55.632 302.394 81.168C291.518 103.449 285.388 128.97 284.002 157.732H329.462C330.281 130.619 334.179 106.466 341.154 85.272C349.362 61.256 360.762 42.408 375.354 28.728C389.946 15.048 407.122 8.208 426.882 8.208C445.73 8.208 462.754 14.744 477.954 27.816C493.154 40.584 505.162 58.824 513.978 82.536C522.23 103.992 526.749 129.057 527.534 157.732H573.167Z" fill="#1565C0"/>
</svg>
