<svg width="570" height="380" viewBox="0 0 570 380" fill="none" xmlns="http://www.w3.org/2000/svg">

<path fill-rule="evenodd" clip-rule="evenodd" d="M164.664 6.84002C156.76 3.19201 145.208 1.36801 130.008 1.36801C115.112 1.36801 101.128 4.25601 88.056 10.032C74.984 15.504 64.344 24.168 56.136 36.024C48.232 47.576 44.28 62.32 44.28 80.256C44.28 97.28 47.928 111.872 55.224 124.032C62.824 135.888 72.856 146.376 85.32 155.496C86.34 156.242 87.3661 156.988 88.3984 157.732H172.713C167.114 153.947 161.239 150.161 155.088 146.376C141.408 137.864 128.64 129.96 116.784 122.664C105.232 115.064 95.96 106.704 88.968 97.584C81.976 88.16 78.48 76.608 78.48 62.928C78.48 47.12 83.648 34.352 93.984 24.624C104.624 14.896 118 10.032 134.112 10.032C151.136 10.032 164.816 14.288 175.152 22.8C185.792 31.312 193.848 42.256 199.32 55.632C204.792 69.008 207.984 82.992 208.896 97.584H219.384V51.528C219.688 39.672 219.992 30.248 220.296 23.256C220.904 15.96 221.36 9.72801 221.664 4.56002H211.176C210.264 11.248 209.048 16.264 207.528 19.608C206.312 22.952 204.184 24.624 201.144 24.624C199.016 24.624 196.736 24.168 194.304 23.256C192.176 22.04 189.288 20.368 185.64 18.24C179.56 13.984 172.568 10.184 164.664 6.84002ZM190.855 170.732H107.204C113.111 174.651 119.192 178.54 125.448 182.4C139.736 190.912 152.2 199.272 162.84 207.48C173.48 215.384 181.688 224.048 187.464 233.472C193.544 242.592 196.584 253.384 196.584 265.848C196.584 280.136 193.696 291.84 187.92 300.96C182.144 309.776 174.696 316.312 165.576 320.568C156.76 324.52 147.336 326.496 137.304 326.496C117.848 326.496 102.192 321.784 90.336 312.36C78.784 302.632 70.12 289.864 64.344 274.056C58.872 258.248 55.528 241.224 54.312 222.984H43.824C43.824 244.264 43.672 261.896 43.368 275.88C43.368 289.864 43.216 301.264 42.912 310.08C42.912 318.592 42.608 326.04 42 332.424H52.488C53.4 325.736 54.464 320.72 55.68 317.376C57.2 314.032 59.48 312.36 62.52 312.36C66.168 312.36 71.336 314.488 78.024 318.744C84.712 322.696 92.768 326.496 102.192 330.144C111.616 333.792 124.384 335.616 140.496 335.616C158.128 335.616 174.24 332.424 188.832 326.04C203.424 319.656 215.128 310.08 223.944 297.312C232.76 284.544 237.168 268.432 237.168 248.976C237.168 232.56 233.52 218.576 226.224 207.024C219.232 195.472 209.504 184.984 197.04 175.56C195.028 173.951 192.967 172.341 190.855 170.732ZM283.698 170.732H329.304C329.484 202.116 333.89 229.565 342.522 253.08C351.642 276.792 363.802 295.184 379.002 308.256C394.506 321.024 411.53 327.408 430.074 327.408C449.834 327.408 467.01 320.568 481.602 306.888C496.194 293.208 507.442 274.36 515.346 250.344C523.217 227.022 527.314 200.484 527.637 170.732H573.2C572.543 202.432 566.33 230.337 554.562 254.448C542.402 279.984 525.378 299.896 503.49 314.184C481.602 328.472 456.522 335.616 428.25 335.616C399.37 335.616 373.986 329.08 352.098 316.008C330.514 302.936 313.642 284.088 301.482 259.464C289.647 234.885 283.719 205.307 283.698 170.732ZM573.167 157.732C572.367 125.945 566.318 98.7515 555.018 76.152C543.162 51.528 526.29 32.68 504.402 19.608C482.818 6.53601 457.586 0 428.706 0C400.434 0 375.354 7.14401 353.466 21.432C331.882 35.72 314.858 55.632 302.394 81.168C291.518 103.449 285.388 128.97 284.002 157.732H329.462C330.281 130.619 334.179 106.466 341.154 85.272C349.362 61.256 360.762 42.408 375.354 28.728C389.946 15.048 407.122 8.208 426.882 8.208C445.73 8.208 462.754 14.744 477.954 27.816C493.154 40.584 505.162 58.824 513.978 82.536C522.23 103.992 526.749 129.057 527.534 157.732H573.167Z" fill="#1565C0"/>
</svg>
